<svg xmlns="http://www.w3.org/2000/svg" width="213" height="213" viewBox="0 0 213 213">
  <g fill="none" fill-rule="evenodd">
    <polygon fill="#FFE512" points=".06 213 212.692 213 212.692 .308 .06 .308"/>
    <path fill="#52524F" d="M85.889 166.186C85.889 166.186 85.285 166.186 84.991 166.714L79.721 176.175C79.721 176.175 79.427 176.703 79.313 176.11L77.524 166.779C77.524 166.779 77.41 166.186 76.806 166.186L71.538 166.186C71.538 166.186 70.934 166.186 71.054 166.778L74.594 184.295C74.594 184.295 74.713 184.887 74.415 185.412L70.553 192.216C70.553 192.216 70.254 192.741 70.858 192.741L75.847 192.741C75.847 192.741 76.451 192.741 76.751 192.216L91.288 166.711C91.288 166.711 91.587 166.186 90.983 166.186L85.889 166.186M94.088 159.42C94.088 159.42 93.484 159.42 93.528 160.022L95.408 185.871C95.408 185.871 95.452 186.473 96.056 186.473L101.102 186.473C101.102 186.473 101.706 186.473 101.933 185.913L108.11 170.653C108.11 170.653 108.336 170.093 108.357 170.697L108.884 185.869C108.884 185.869 108.905 186.473 109.509 186.473L114.767 186.473C114.767 186.473 115.372 186.473 115.625 185.925L127.63 159.968C127.63 159.968 127.884 159.42 127.28 159.42L121.769 159.42C121.769 159.42 121.165 159.42 120.91 159.967L114.13 174.507C114.13 174.507 113.875 175.054 113.842 174.451L113.05 160.023C113.05 160.023 113.017 159.42 112.413 159.42L108.327 159.42C108.327 159.42 107.722 159.42 107.486 159.976L101.3 174.498C101.3 174.498 101.063 175.054 101.018 174.452L99.957 160.022C99.957 160.022 99.912 159.42 99.308 159.42L94.088 159.42M124.931 185.879C124.931 185.879 124.821 186.473 125.425 186.473L130.293 186.473C130.293 186.473 130.898 186.473 131.007 185.879L132.978 175.217C133.163 174.229 133.79 170.749 137.189 170.749 140.444 170.749 139.774 174.449 139.598 175.43L137.659 185.879C137.659 185.879 137.548 186.473 138.153 186.473L143.015 186.473C143.015 186.473 143.62 186.473 143.73 185.879L145.72 175.144C146.395 171.523 146.543 169.735 145.195 167.722 144.2 166.186 142.028 165.491 140.091 165.491 137.924 165.491 135.749 166.225 134.39 168.053L134.35 168.053C134.35 168.053 134.311 168.053 134.421 167.459L135.803 160.014C135.803 160.014 135.913 159.42 135.309 159.42L130.447 159.42C130.447 159.42 129.843 159.42 129.733 160.014L124.931 185.879M156.524 166.868C156.524 166.868 156.634 166.274 156.03 166.274L151.171 166.274C151.171 166.274 150.567 166.274 150.456 166.868L146.914 185.975C146.914 185.975 146.804 186.569 147.408 186.569L152.268 186.569C152.268 186.569 152.873 186.569 152.983 185.975L156.524 166.868M157.777 160.104C157.777 160.104 157.887 159.51 157.282 159.51L152.426 159.51C152.426 159.51 151.822 159.51 151.712 160.104L151.079 163.523C151.079 163.523 150.969 164.117 151.573 164.117L156.43 164.117C156.43 164.117 157.034 164.117 157.144 163.523L157.777 160.104M169.707 160.104C169.707 160.104 169.817 159.51 169.213 159.51L164.351 159.51C164.351 159.51 163.747 159.51 163.637 160.104L162.489 166.274 160.097 166.274C160.097 166.274 159.492 166.274 159.382 166.868L158.639 170.884 161.03 170.884C161.03 170.884 161.634 170.884 161.524 171.478L158.84 185.975C158.84 185.975 158.73 186.569 159.334 186.569L164.194 186.569C164.194 186.569 164.799 186.569 164.909 185.975L167.706 170.884 170.03 170.884C170.03 170.884 170.634 170.884 170.744 170.29L171.483 166.274 169.169 166.274C169.169 166.274 168.564 166.274 168.674 165.68L169.707 160.104M50.719 176.389C51.144 174.085 53.221 171.158 56.698 171.158 60.136 171.158 61.31 173.86 60.862 176.316 60.492 178.289 58.622 181.508 54.816 181.508 51.155 181.508 50.366 178.289 50.719 176.389M68.695 166.78C68.695 166.78 68.805 166.186 68.201 166.186L62.734 166.186C62.734 166.186 62.734 166.186 62.151 168.77 61.649 167.526 60.198 165.491 56.868 165.491 51.458 165.491 45.894 169.656 44.661 176.316 43.582 182.129 46.414 187.174 52.851 187.174 55.225 187.174 57.787 185.621 59.174 183.649L58.754 185.88C58.754 185.88 58.642 186.473 59.246 186.473L64.439 186.473C64.439 186.473 65.044 186.473 65.154 185.879L68.695 166.78M177.339 174.668C177.821 173.463 179.448 171.198 182.589 171.198 185.736 171.198 186.518 173.463 186.538 174.065 186.538 174.065 186.559 174.668 185.955 174.668L177.339 174.668zM184.377 180.84C183.337 181.9 182.495 182.24 180.632 182.24 178.258 182.24 176.459 181.019 176.54 178.609L191.147 178.609C191.147 178.609 191.751 178.609 191.833 178.37 191.914 178.132 192.099 177.465 192.248 176.664 193.388 170.48 189.747 165.71 183.561 165.71 177.386 165.71 171.977 170.805 170.929 176.479 169.805 182.511 173.869 187.225 179.687 187.225 181.762 187.225 183.889 186.939 185.798 185.728 187.735 184.562 189.717 183.104 190.8 181.353 190.8 181.353 191.118 180.84 190.514 180.84L184.377 180.84 184.377 180.84zM31.228 164.056L33.752 164.056C37.138 164.179 38.382 165.906 37.929 168.356 37.686 169.673 36.606 171.994 32.165 171.887L30.322 171.887C30.322 171.887 29.718 171.887 29.833 171.294L31.228 164.056zM20.487 185.879C20.487 185.879 20.376 186.473 20.981 186.473L26.387 186.473C26.387 186.473 26.991 186.473 27.101 185.879L28.614 177.739 28.648 177.739C28.648 177.739 28.681 177.739 29.041 178.225L34.791 185.988C34.791 185.988 35.15 186.473 35.754 186.473L42.442 186.473C42.442 186.473 43.046 186.473 42.665 186.004 42.665 186.004 43.046 186.473 35.96 177.738 35.96 177.738 35.579 177.269 36.177 177.183 40.655 176.54 43.719 171.797 44.294 168.686 44.809 165.906 44.4 163.512 42.393 161.326 40.1 158.842 37.985 158.876 34.042 159.011L26.091 159.011C26.091 159.011 25.487 159.011 25.377 159.605L20.487 185.879 20.487 185.879zM194.017 185.047L194.447 185.047C194.81 185.047 195.143 185.028 195.143 184.611 195.143 184.26 194.84 184.205 194.562 184.205L194.017 184.205 194.017 185.047zM193.605 183.872L194.628 183.872C195.258 183.872 195.554 184.12 195.554 184.63 195.554 185.107 195.251 185.307 194.859 185.349L195.614 186.517 195.173 186.517 194.452 185.379 194.017 185.379 194.017 186.517 193.605 186.517 193.605 183.872zM194.489 187.128C195.536 187.128 196.347 186.293 196.347 185.186 196.347 184.103 195.536 183.267 194.489 183.267 193.429 183.267 192.618 184.103 192.618 185.186 192.618 186.293 193.429 187.128 194.489 187.128zM194.489 182.934C195.724 182.934 196.759 183.908 196.759 185.186 196.759 186.487 195.724 187.461 194.489 187.461 193.248 187.461 192.207 186.487 192.207 185.186 192.207 183.908 193.248 182.934 194.489 182.934L194.489 182.934z"/>
  </g>
</svg>
